<svg xmlns="http://www.w3.org/2000/svg" width="345.644" height="91.532" viewBox="0 0 345.644 91.532"><g transform="translate(-14 -1205)"><rect width="345.644" height="91.532" transform="translate(14 1205)" fill="#a5b519"/><g transform="translate(144 1208)" opacity="0.2"><g transform="translate(0 40.698)"><path d="M16.4,57.49c0,8.372-7.381,13.88-8.152,13.88C7.371,71.37.1,65.862.1,57.49-.01,49.117,7.371,37,8.142,37,9.243,37,16.4,49.117,16.4,57.49Z" transform="translate(-0.099 -37)" fill="#fff"/><path d="M23.64,63.1c-8.372.441-13.55,8.042-13.439,8.813,0,.881,5.949,7.931,14.321,7.491S44.57,71.033,44.46,70.262C44.35,69.271,32.012,62.661,23.64,63.1Z" transform="translate(0.927 -34.35)" fill="#fff"/></g><g transform="translate(17.186 26.598)"><path d="M30.9,43.037c0,7.711-6.72,12.889-7.6,12.889s-7.6-5.177-7.6-12.889S22.42,24.2,23.3,24.2C24.292,24.2,30.9,35.326,30.9,43.037Z" transform="translate(-15.7 -24.2)" fill="#fff"/><path d="M38.189,63.9c-7.711,0-12.889-6.72-12.889-7.6s5.177-7.6,12.889-7.6,18.837,6.72,18.837,7.6C57.026,57.292,45.9,63.9,38.189,63.9Z" transform="translate(-14.725 -21.711)" fill="#fff"/></g><g transform="translate(32.939 13.048)"><path d="M44.321,29.856c0,7.381-6.389,12.228-7.16,12.228S30,37.237,30,29.856,36.5,11.9,37.16,11.9C38.042,11.9,44.321,22.475,44.321,29.856Z" transform="translate(-30 -11.9)" fill="#fff"/><path d="M51.228,49.721C43.847,49.721,39,43.331,39,42.56s4.847-7.16,12.228-7.16,17.956,6.5,17.956,7.16C69.184,43.442,58.608,49.721,51.228,49.721Z" transform="translate(-29.086 -9.513)" fill="#fff"/></g><g transform="translate(48.031 0.931)"><path d="M56.919,17.424c0,6.72-5.949,11.236-6.61,11.236-.771,0-6.61-4.517-6.61-11.236S49.649.9,50.31.9C51.081,1.01,56.919,10.7,56.919,17.424Z" transform="translate(-43.7 -0.9)" fill="#fff"/><path d="M63.436,35.919c-6.72,0-11.236-5.949-11.236-6.61,0-.771,4.517-6.61,11.236-6.61S79.96,28.649,79.96,29.31C79.96,30.081,70.156,35.919,63.436,35.919Z" transform="translate(-42.836 1.315)" fill="#fff"/></g><path d="M73.325,15.307c-4.406,4.406-11.346,3.525-11.787,3.084S60.106,11.12,64.622,6.6C69.028,2.2,79.383-.336,79.824.1,80.375.545,77.841,10.79,73.325,15.307Z" transform="translate(6.101 -0.055)" fill="#fff"/></g><g transform="translate(106 1240)"><path d="M0,17.926A24.09,24.09,0,0,1,3.005,12.5H.441l.581-2.384.5-.02c1.182-.06,2.3-.08,3.386-.1h0C7.974,6.146,10.838,3.662,13.5,2.58a2.262,2.262,0,0,1,.821-.18,4.989,4.989,0,0,1,2.1.942c.982.621,1.462,1.182,1.462,1.683a5.032,5.032,0,0,1-.16,1.142l-.5,2.144-.561,2.484-.621,2.725a17.981,17.981,0,0,0-.4,2.344q0,.541.481.541a3.352,3.352,0,0,0,1.442-.421l.26-.14-.26,1.322a10.767,10.767,0,0,1-3.766.942,2.264,2.264,0,0,1-1.523-.441,1.426,1.426,0,0,1-.521-1.122,14.173,14.173,0,0,1,.441-2.7l1.723-7.513.06-.341a1.4,1.4,0,0,1,.06-.28c.02-.06.02-.12.04-.18l-.02-.1-.14-.04a9.024,9.024,0,0,0-2.124,1.7,29.568,29.568,0,0,0-2.785,2.925h0c.9,0,1.923.02,3.065.08l-.661,2.424-.461-.02-3.105-.1c-.18,0-.441-.02-.781-.02h0a26.517,26.517,0,0,0-3.266,5.529H0Z" transform="translate(0 -1.919)" fill="#fff"/><path d="M107.223,25.82,105.8,32.011l-.621,2.645a11.427,11.427,0,0,1-1.583,3.987,6.77,6.77,0,0,1-2.444,2.023,8.16,8.16,0,0,1-3.746.781,10.464,10.464,0,0,1-3.506-.581l.581-2.524a5.476,5.476,0,0,0,2.364.581A4.181,4.181,0,0,0,99.831,37.8c.781-.741,1.5-2.344,2.144-4.808C99.69,35.457,98.048,36.7,97.066,36.7a3.742,3.742,0,0,1-1.983-.942l-.521-.4a2.574,2.574,0,0,1-.8-.882,3.252,3.252,0,0,1-.16-1.242,8.58,8.58,0,0,1,1-4.147,5.872,5.872,0,0,1,2.865-2.665,14.406,14.406,0,0,1,5.509-.821c1.162,0,2.284.06,3.406.16ZM103.176,28.1a7.745,7.745,0,0,0-3.927.761,5.382,5.382,0,0,0-1.763,2.324,6.788,6.788,0,0,0-.681,2.544c0,.26.1.4.3.4a5.592,5.592,0,0,0,2.444-1.523A17.706,17.706,0,0,0,103.176,28.1Z" transform="translate(-74.848 -20.471)" fill="#fff"/><path d="M161.9,36.479l1.763-7.853.14-.7a8.3,8.3,0,0,0,.18-1.5,2.05,2.05,0,0,0-.1-.641h3.786a4.747,4.747,0,0,1,.1.841,13.96,13.96,0,0,1-.9,3.766,12.854,12.854,0,0,1,2.9-3.526A6.124,6.124,0,0,1,173.44,25.6l-.821,3.085a.528.528,0,0,0-.14-.02h-.2c-1.362,0-2.865,1.062-4.488,3.205a11.04,11.04,0,0,0-2.064,4.327l-.06.3H161.9Z" transform="translate(-129.465 -20.471)" fill="#fff"/><path d="M222.869,15.707a10.217,10.217,0,0,1-3.125.521c-1.282,0-1.943-.461-1.943-1.382a4.359,4.359,0,0,1,.1-.841l1.422-5.81a10.038,10.038,0,0,0,.341-2.1,2.975,2.975,0,0,0-.06-.661l-.04-.14h3.706a4.7,4.7,0,0,1,.1,1,10.068,10.068,0,0,1-.341,2.184l-.16.661-1.022,4.227-.14.6a2.372,2.372,0,0,0-.08.5.3.3,0,0,0,.341.341,4.342,4.342,0,0,0,1.182-.24Zm-2.3-13.3a2.425,2.425,0,0,1,.641-1.743A2.061,2.061,0,0,1,222.748,0a1.449,1.449,0,0,1,1.1.441,1.652,1.652,0,0,1,.441,1.182,2.667,2.667,0,0,1-.641,1.783,1.991,1.991,0,0,1-1.583.741Q220.565,4.147,220.565,2.4Z" transform="translate(-174.166 0)" fill="#fff"/><path d="M260.174,23.463a13.717,13.717,0,0,1-3.426.5,3.527,3.527,0,0,1-2.624-1.1,3.151,3.151,0,0,1-1.082-2.124,10.227,10.227,0,0,1,.3-2l.721-3.145H252l.581-2.544h2.084l.761-3.346h3.786l-.8,3.346h4.067L261.9,15.59H257.81l-.7,3.005a19.418,19.418,0,0,0-.481,2.364c0,.321.26.461.8.461a12.553,12.553,0,0,0,3.346-.5Z" transform="translate(-201.514 -7.757)" fill="#fff"/><path d="M317.582,36.8a11.139,11.139,0,0,1-2.925.521q-2.224,0-2.224-1.442a5.689,5.689,0,0,1,.361-1.643c.1-.3.22-.7.381-1.182a53.574,53.574,0,0,1-4.007,3.626,2.667,2.667,0,0,1-1.262.621,3.992,3.992,0,0,1-1.983-.661c-.741-.441-1.122-.861-1.122-1.262a2.767,2.767,0,0,1,.06-.521l.16-.681.16-.741.26-1,.7-2.985a10.984,10.984,0,0,0,.361-2.324v-.1l-.02-.381a1.667,1.667,0,0,0-.02-.24h3.746a3.3,3.3,0,0,1,.12.861,9.044,9.044,0,0,1-.341,1.863l-.982,3.726c-.12.481-.18.721-.2.761a2.529,2.529,0,0,1-.08.3.51.51,0,0,0-.04.14c0,.04.02.08.08.14l.08.04c.18,0,.661-.381,1.483-1.122a16.974,16.974,0,0,0,1.983-2.1,14.268,14.268,0,0,0,2.4-4.608h3.506l-1.6,7.052-.18.942-.1.541a1.742,1.742,0,0,1-.04.2,2,2,0,0,0-.04.321c0,.26.16.4.461.4a.979.979,0,0,0,.26-.02l.341-.08.3-.06s.08-.02.22-.06Z" transform="translate(-243.736 -21.111)" fill="#fff"/><path d="M374.1,36.479l1.763-7.853.14-.7a8.3,8.3,0,0,0,.18-1.5,2.05,2.05,0,0,0-.1-.641h3.806a4.75,4.75,0,0,1,.1.841,13.961,13.961,0,0,1-.9,3.766,12.854,12.854,0,0,1,2.9-3.526A6.124,6.124,0,0,1,385.66,25.6l-.841,3.085a.529.529,0,0,0-.14-.02h-.2c-1.362,0-2.865,1.062-4.488,3.205a11.04,11.04,0,0,0-2.064,4.327l-.06.3H374.1Z" transform="translate(-299.153 -20.471)" fill="#fff"/><path d="M435.069,15.707a10.217,10.217,0,0,1-3.125.521c-1.282,0-1.943-.461-1.943-1.382a4.36,4.36,0,0,1,.1-.841l1.422-5.81a10.036,10.036,0,0,0,.341-2.1,2.974,2.974,0,0,0-.06-.661l-.04-.14h3.706a4.7,4.7,0,0,1,.1,1,10.066,10.066,0,0,1-.341,2.184l-.16.661-1.022,4.227-.14.6a2.373,2.373,0,0,0-.08.5.3.3,0,0,0,.341.341,4.343,4.343,0,0,0,1.182-.24Zm-2.3-13.3a2.426,2.426,0,0,1,.641-1.743A2.061,2.061,0,0,1,434.948,0a1.449,1.449,0,0,1,1.1.441,1.652,1.652,0,0,1,.441,1.182,2.667,2.667,0,0,1-.641,1.783,1.991,1.991,0,0,1-1.583.741Q432.765,4.147,432.765,2.4Z" transform="translate(-343.854 0)" fill="#fff"/><path d="M461.1,35.8l.741-2.5a8.33,8.33,0,0,0,3.606.781,11.7,11.7,0,0,0,3.105-.321c.24-.16.361-.3.361-.461,0-.341-.341-.581-1-.721-.3-.06-.641-.14-1.082-.2a10.577,10.577,0,0,1-4.127-1.3,1.993,1.993,0,0,1-.781-1.623,3.248,3.248,0,0,1,1.823-2.825,9.051,9.051,0,0,1,4.748-1.122,14.455,14.455,0,0,1,3.746.541l-.641,2.444a14.47,14.47,0,0,0-3.766-.461,11.856,11.856,0,0,0-2.644.2c-.14.16-.2.26-.2.321,0,.24.3.421.922.541.06.02.26.06.6.14.16.04.741.14,1.723.321a8.489,8.489,0,0,1,3.045.962,1.774,1.774,0,0,1,.7,1.563A3.7,3.7,0,0,1,470,35.437a9.548,9.548,0,0,1-4.928,1.182A9.27,9.27,0,0,1,461.1,35.8Z" transform="translate(-368.723 -20.391)" fill="#fff"/><path d="M520.3,36.4l1.763-7.833a10.677,10.677,0,0,0,.3-2.2,2.3,2.3,0,0,0-.08-.661h3.766a3.086,3.086,0,0,1,.12.861,9.208,9.208,0,0,1-.341,2.064c-.08.341-.22.861-.4,1.6.24-.381.481-.741.681-1.062a12.755,12.755,0,0,1,2.164-2.725,3,3,0,0,1,1.683-.942,3.4,3.4,0,0,1,1.883.681c.661.441,1,.841,1,1.182v.06l-.02.24s-.02.12-.06.321l-.1.621-.14.761c0,.04-.04.22-.08.581.3-.421.521-.7.621-.841,1.763-2.384,3.025-3.586,3.827-3.586a4.71,4.71,0,0,1,1.983.761c.882.5,1.322,1.022,1.322,1.523a9.725,9.725,0,0,1-.3,1.763l-.22.982-.741,3.246-.2.9a1.791,1.791,0,0,0-.04.22c0,.18.1.28.32.28a3.744,3.744,0,0,0,1.2-.24l-.3,1.142a10.479,10.479,0,0,1-3.085.521c-1.3,0-1.963-.441-1.963-1.342a2.536,2.536,0,0,1,.06-.561l.22-.962.881-4.007.1-.521a2.529,2.529,0,0,0,.06-.421c0-.14-.06-.2-.16-.2a.485.485,0,0,0-.32.2l-.26.28a20.319,20.319,0,0,0-2.5,3.386,26.649,26.649,0,0,0-2.043,3.967h-3.446l1.422-6.671.1-.521a2.844,2.844,0,0,0,.06-.421c0-.14-.06-.22-.16-.22-.18,0-.581.381-1.2,1.162a26.325,26.325,0,0,0-1.863,2.7,24.442,24.442,0,0,0-1.983,3.967H520.3Z" transform="translate(-416.063 -20.391)" fill="#fff"/><path d="M638.621,30.429a6.118,6.118,0,0,1-.862,3.266,5.378,5.378,0,0,1-2.444,2.124,7.908,7.908,0,0,1-3.205.7,5.877,5.877,0,0,1-4.067-1.483A4.953,4.953,0,0,1,626.4,31.21,5.218,5.218,0,0,1,628.283,27a6.967,6.967,0,0,1,4.688-1.6,5.693,5.693,0,0,1,4.167,1.483A4.843,4.843,0,0,1,638.621,30.429Zm-3.546-2.444a3.374,3.374,0,0,0-1.482-.3,3.049,3.049,0,0,0-2.6,1.583,6.534,6.534,0,0,0-1.042,3.706,8.1,8.1,0,0,0,.06.861,1.318,1.318,0,0,0,.24.12l.381.12a2.95,2.95,0,0,0,.8.16,3.127,3.127,0,0,0,2.584-1.643,7.155,7.155,0,0,0,1.1-4.087v-.12A2.682,2.682,0,0,1,635.075,27.984Z" transform="translate(-500.907 -20.311)" fill="#fff"/><path d="M694.2,62.524a2.551,2.551,0,0,1,.661-1.783A2.081,2.081,0,0,1,696.5,60a1.455,1.455,0,0,1,1.623,1.663,2.622,2.622,0,0,1-.661,1.783,2.079,2.079,0,0,1-1.6.761,1.674,1.674,0,0,1-1.182-.421A1.646,1.646,0,0,1,694.2,62.524Z" transform="translate(-555.124 -47.98)" fill="#fff"/><path d="M727.569,15.707a10.216,10.216,0,0,1-3.125.521c-1.282,0-1.943-.461-1.943-1.382a4.358,4.358,0,0,1,.1-.841l1.422-5.81a10.04,10.04,0,0,0,.341-2.1,2.972,2.972,0,0,0-.06-.661l-.04-.14h3.706a4.7,4.7,0,0,1,.1,1,10.069,10.069,0,0,1-.341,2.184l-.16.661-1.022,4.227-.14.6a2.369,2.369,0,0,0-.08.5.3.3,0,0,0,.341.341,4.342,4.342,0,0,0,1.182-.24Zm-2.3-13.3a2.426,2.426,0,0,1,.641-1.743A2.061,2.061,0,0,1,727.448,0a1.449,1.449,0,0,1,1.1.441,1.652,1.652,0,0,1,.441,1.182,2.667,2.667,0,0,1-.641,1.783,1.991,1.991,0,0,1-1.583.741Q725.265,4.147,725.265,2.4Z" transform="translate(-577.754 0)" fill="#fff"/><path d="M764.774,23.463a13.718,13.718,0,0,1-3.426.5,3.527,3.527,0,0,1-2.624-1.1,3.151,3.151,0,0,1-1.082-2.124,10.225,10.225,0,0,1,.3-2l.721-3.145H756.6l.581-2.544h2.084l.761-3.346h3.786l-.8,3.346h4.067L766.5,15.59H762.39l-.7,3.005a19.4,19.4,0,0,0-.481,2.364c0,.321.26.461.8.461a12.554,12.554,0,0,0,3.346-.5Z" transform="translate(-605.023 -7.757)" fill="#fff"/></g></g></svg>