<svg xmlns="http://www.w3.org/2000/svg" width="90" height="90" viewBox="0 0 90 90"><g transform="translate(-916 -393)"><path d="M2330,90a45.012,45.012,0,0,1-17.516-86.464,45.012,45.012,0,0,1,35.032,82.927A44.72,44.72,0,0,1,2330,90Zm0-80a34.891,34.891,0,1,0,13.624,2.75A34.781,34.781,0,0,0,2330,10Z" transform="translate(-1369 393)" fill="#eee"/><path d="M2303,81a44.962,44.962,0,0,1,45-45q1,0,2,.043V46.056q-1-.056-2-.056a34.971,34.971,0,0,0-35,35Z" transform="translate(-1387 357)" fill="#38b1c4"/></g></svg>