<svg xmlns="http://www.w3.org/2000/svg" width="78.172" height="24.233" viewBox="0 0 78.172 24.233"><path d="M16.89,46.5h-.13a7.84,7.84,0,0,0-7.817,7.817A8.041,8.041,0,0,0,9.4,57.053l-1.5.782,1.3,2.541,1.238-.651c.717,1.433,1.629,3.062,2.736,4.821.391.651,3.648,6.189,3.648,6.189s.782-1.368,1.629-2.8l-1.629-2.8h0c-1.563-2.671-2.866-4.821-3.778-6.71l3.062-1.563-1.3-2.541-2.736,1.368a5.426,5.426,0,0,1-.2-1.433,5.016,5.016,0,1,1,10.032,0c0,2.28-1.433,4.821-3.518,8.338l1.629,2.8c.261-.456.456-.782.521-.912,2.475-4.1,4.234-7.1,4.234-10.227A7.841,7.841,0,0,0,16.89,46.5Z" transform="translate(-7.9 -46.5)" fill="#fff"/><g transform="translate(20.911 1.694)"><path d="M48.859,55.771H43.648v4.1h4.495v2.606H43.648V68.6H40V53.1h9.25Z" transform="translate(-40 -50.494)" fill="#fff"/><path d="M65.509,65.461H58.148c.2,2.15,1.238,2.736,2.671,2.736a4.858,4.858,0,0,0,2.866-1.042l1.433,1.954a7.481,7.481,0,0,1-4.625,1.629c-3.974,0-5.993-2.541-5.993-6.254,0-3.583,1.954-6.384,5.537-6.384,3.387,0,5.472,2.215,5.472,6.058A4.343,4.343,0,0,1,65.509,65.461Zm-3.387-2.28c0-1.629-.521-2.736-1.954-2.736-1.173,0-1.889.717-2.019,2.866h3.974Z" transform="translate(-45.054 -52.237)" fill="#fff"/><path d="M81.222,58.33l-.586,3.453a5.7,5.7,0,0,0-1.042-.13c-1.433,0-2.085,1.042-2.475,2.866v5.928H73.6V58.526h3.062l.261,2.28A3.333,3.333,0,0,1,79.984,58.2,6.562,6.562,0,0,1,81.222,58.33Z" transform="translate(-51.712 -52.272)" fill="#fff"/><path d="M90.969,51.119A2.086,2.086,0,1,1,88.885,49.1,1.967,1.967,0,0,1,90.969,51.119Zm-.261,16.09H87.191V55.354h3.518Z" transform="translate(-56.313 -49.1)" fill="#fff"/><path d="M105.709,65.461H98.348c.2,2.15,1.238,2.736,2.671,2.736a4.858,4.858,0,0,0,2.866-1.042l1.433,1.954a7.481,7.481,0,0,1-4.625,1.629c-3.974,0-5.993-2.541-5.993-6.254,0-3.583,1.954-6.384,5.537-6.384,3.387,0,5.472,2.215,5.472,6.058A4.343,4.343,0,0,1,105.709,65.461Zm-3.387-2.28c0-1.629-.521-2.736-1.954-2.736-1.173,0-1.889.717-2.019,2.866h3.974Z" transform="translate(-59.067 -52.237)" fill="#fff"/><path d="M122.037,59.631l-1.3,2.019a5.361,5.361,0,0,0-2.931-.912c-.977,0-1.433.326-1.433.912,0,.651.326.912,2.41,1.5,2.345.651,3.648,1.629,3.648,3.778,0,2.475-2.345,3.909-5.277,3.909a7.353,7.353,0,0,1-4.951-1.759l1.694-1.954a5.164,5.164,0,0,0,3.127,1.173c1.042,0,1.694-.391,1.694-1.107,0-.782-.326-1.042-2.475-1.629q-3.518-.977-3.518-3.713c0-2.019,1.889-3.648,4.886-3.648A6.475,6.475,0,0,1,122.037,59.631Z" transform="translate(-65.167 -52.269)" fill="#fff"/></g></svg>