<svg xmlns="http://www.w3.org/2000/svg" width="104.055" height="32.257" viewBox="0 0 104.055 32.257"><g transform="translate(-4971 85)"><g transform="translate(4971 -85)"><path d="M19.866,0h-.173A10.436,10.436,0,0,0,9.287,10.405a10.7,10.7,0,0,0,.607,3.642L7.9,15.088,9.634,18.47l1.648-.867c.954,1.908,2.168,4.075,3.642,6.417.52.867,4.856,8.238,4.856,8.238s1.041-1.821,2.168-3.729L19.78,24.8h0c-2.081-3.555-3.815-6.417-5.029-8.931l4.075-2.081-1.734-3.382L13.45,12.226a6.6,6.6,0,0,1-.26-1.821,6.677,6.677,0,0,1,13.354,0c0,3.035-1.908,6.417-4.682,11.1l2.168,3.729c.347-.607.607-1.041.694-1.214,3.3-5.463,5.636-9.452,5.636-13.614A10.455,10.455,0,0,0,19.866,0Z" transform="translate(-7.9 0)" fill="#16af95"/><g transform="translate(27.835 2.255)"><path d="M51.793,10.155H44.856v5.463h5.983v3.468H44.856v8.151H40V6.6H52.313Z" transform="translate(-40 -3.132)" fill="#16af95"/><path d="M69.154,21.4h-9.8c.26,2.862,1.648,3.642,3.555,3.642a6.467,6.467,0,0,0,3.815-1.387l1.908,2.6a9.766,9.766,0,0,1-6.157,2.168c-5.289,0-7.978-3.382-7.978-8.324,0-4.769,2.6-8.5,7.371-8.5,4.509,0,7.284,2.948,7.284,8.064A5.781,5.781,0,0,1,69.154,21.4Zm-4.509-3.035c0-2.168-.694-3.642-2.6-3.642-1.561,0-2.515.954-2.688,3.815h5.289Z" transform="translate(-41.927 -3.796)" fill="#16af95"/><path d="M83.745,11.873l-.78,4.6a7.589,7.589,0,0,0-1.387-.173c-1.908,0-2.775,1.387-3.3,3.815V28H73.6V12.134h4.075l.347,3.035C78.716,13,80.277,11.7,82.1,11.7A8.736,8.736,0,0,1,83.745,11.873Z" transform="translate(-44.465 -3.809)" fill="#16af95"/><path d="M92.35,5.288a2.776,2.776,0,0,1-5.55,0,2.776,2.776,0,0,1,5.55,0ZM92,26.793H87.32V10.924H92Z" transform="translate(-46.219 -2.6)" fill="#16af95"/><path d="M109.354,21.4h-9.8c.26,2.862,1.648,3.642,3.555,3.642a6.467,6.467,0,0,0,3.815-1.387l1.908,2.6a9.958,9.958,0,0,1-6.157,2.168c-5.289,0-7.978-3.382-7.978-8.324,0-4.769,2.6-8.5,7.371-8.5,4.509,0,7.284,2.948,7.284,8.064A5.781,5.781,0,0,1,109.354,21.4Zm-4.509-3.035c0-2.168-.694-3.642-2.6-3.642-1.561,0-2.515.954-2.688,3.815h5.289Z" transform="translate(-47.268 -3.796)" fill="#16af95"/><path d="M125.294,13.607l-1.734,2.688a7.135,7.135,0,0,0-3.9-1.214c-1.3,0-1.908.434-1.908,1.214,0,.867.434,1.214,3.208,1.994,3.122.867,4.856,2.168,4.856,5.029,0,3.3-3.122,5.2-7.024,5.2a9.788,9.788,0,0,1-6.59-2.341l2.255-2.6a6.874,6.874,0,0,0,4.162,1.561c1.387,0,2.255-.52,2.255-1.474,0-1.041-.434-1.387-3.3-2.168q-4.682-1.3-4.682-4.943c0-2.688,2.515-4.856,6.5-4.856A8.619,8.619,0,0,1,125.294,13.607Z" transform="translate(-49.594 -3.808)" fill="#16af95"/></g></g></g></svg>