<svg xmlns="http://www.w3.org/2000/svg" width="262" height="92.418" viewBox="0 0 262 92.418"><g transform="translate(-971.177 -483.529)"><path d="M1211.281,505.315a12.522,12.522,0,0,0-4.49-.8,10.335,10.335,0,0,0-7.027,2.623,17.163,17.163,0,0,0-4.685,7.5l-1.124-8.715H1181.3v4.165q-5.809-5.752-15.462-5.757-10.4,0-16.351,6.981c-.13.152-.251.311-.376.467a12.6,12.6,0,0,0-2.114-3.559,11.391,11.391,0,0,0-9.136-3.889,14.128,14.128,0,0,0-7.027,1.733,18.448,18.448,0,0,0-5.716,5.294v-26.7l-14.431,1.5V528.7a15.231,15.231,0,0,0-.66-1.512,17.449,17.449,0,0,0-5.669-6.418,44.444,44.444,0,0,0-9.7-4.826,50.824,50.824,0,0,1-6.934-3,9.331,9.331,0,0,1-3.28-2.717,6.826,6.826,0,0,1,1.125-8.339,8.314,8.314,0,0,1,5.621-1.78q6.372,0,12.463,5.247l6.841-7.871a28.532,28.532,0,0,0-9.136-6.231,29.656,29.656,0,0,0-11.573-2.108,25.522,25.522,0,0,0-11.1,2.343,18.62,18.62,0,0,0-7.73,6.606,17.383,17.383,0,0,0-2.812,9.791,16.863,16.863,0,0,0,4.123,11.713q4.122,4.592,13.868,8.245,6,2.157,8.152,4.311a7.73,7.73,0,0,1,2.155,5.715,7.931,7.931,0,0,1-2.342,6,9.225,9.225,0,0,1-6.653,2.249,17.816,17.816,0,0,1-7.449-1.593,29.126,29.126,0,0,1-6.981-4.592l-7.309,8.152q9,9.184,22.582,9.183a28.49,28.49,0,0,0,12.6-2.623,19.34,19.34,0,0,0,8.245-7.262,18.58,18.58,0,0,0,1.551-3.178v11.47h14.431V521.283a21.042,21.042,0,0,1,3.607-4.544,5.382,5.382,0,0,1,3.607-1.546,3.079,3.079,0,0,1,2.624,1.265,7.577,7.577,0,0,1,.937,4.357v34.857h14.43v-4.294q5.783,5.885,15.515,5.887,9.614,0,15.462-6.008v4.415h14.43V530.279a23.267,23.267,0,0,1,3.186-8.761,7.1,7.1,0,0,1,5.95-3.246c1.312,0,4.846.259,6.349,1.451l.078-1.5-.184-2.277v24.924q0,7.779,3.841,12.088t11.432,4.31a22.53,22.53,0,0,0,6.7-1.03,19.375,19.375,0,0,0,5.856-2.905l-2.931-9.316a18.461,18.461,0,0,1-6.533,1.82q-3.935,0-3.936-5.154V515.943h9.419l-.473-1.55,11.04,41.279h5.153a15.921,15.921,0,0,1-5.06,7.45q-3.186,2.39-9.651,3.327l1.593,10.026q20.708-1.314,26.049-20.708l14.149-49.85h-14.524l-8.526,40.573-7.684-40.573h-21.484V493.454l-14.43,1.687m-39.6,47.834a5.977,5.977,0,0,1-5.669,3.7,5.888,5.888,0,0,1-5.622-3.654q-1.781-3.654-1.78-12.275,0-8.433,1.78-12.087a5.888,5.888,0,0,1,5.622-3.654,5.965,5.965,0,0,1,5.716,3.607q1.778,3.608,1.78,12.228Q1173.338,539.275,1171.511,542.975Z" transform="translate(-44.584 -0.527)" fill="#38b1c4"/><g transform="translate(971.177 483.529)"><path d="M1003.521,566.184l3.579,24.961a4.352,4.352,0,0,0,4.287,3.716h12.672a4.35,4.35,0,0,0,4.289-3.731l3.485-24.945Zm25.275,2.642-.393,2.814h-21.431l-.4-2.814Zm-1,5.456-2.037,11.97a2.443,2.443,0,0,1-1.7.511h-12.672a2.534,2.534,0,0,1-1.693-.491l-2.2-11.991Zm-3.734,17.937h-12.672a1.7,1.7,0,0,1-1.672-1.449l-.238-1.665a6.017,6.017,0,0,0,1.91.3h12.672a6.026,6.026,0,0,0,1.9-.3l-.231,1.656A1.7,1.7,0,0,1,1024.058,592.219Z" transform="translate(-986.431 -522.511)" fill="#38b1c4"/><path d="M973.819,545.537h14.662V542.9H973.819V523.35h19.687v2.439h2.642V517.04a4.342,4.342,0,0,0-1.28-3.091l-3.311-3.311a4.677,4.677,0,0,1-1.379-3.329V496.486a4.76,4.76,0,0,0-.191-1.335l-.044-.148-1.109-1.95a2.439,2.439,0,0,0,1-1.963V486.7a3.176,3.176,0,0,0-3.173-3.172h-6.042a3.176,3.176,0,0,0-3.173,3.172v4.388a2.435,2.435,0,0,0,.671,1.674l-.763,1.758a4.735,4.735,0,0,0-.394,1.9v10.938a4.676,4.676,0,0,1-1.379,3.329l-3.123,3.123a4.344,4.344,0,0,0-1.28,3.091v38.98h19.654v-2.642H973.819Zm6.8-59.366h6.042a.532.532,0,0,1,.531.531v4.109h-7.1V486.7A.532.532,0,0,1,980.618,486.171Zm-6.293,29.505,3.123-3.123a7.3,7.3,0,0,0,2.153-5.2V496.419a2.111,2.111,0,0,1,.175-.844l.883-2.035h5.412l1.413,2.483a2.127,2.127,0,0,1,.051.463v10.823a7.3,7.3,0,0,0,2.153,5.2L993,515.817a1.743,1.743,0,0,1,.506,1.223v3.668H973.819V516.9A1.72,1.72,0,0,1,974.325,515.676Z" transform="translate(-971.177 -483.529)" fill="#38b1c4"/></g></g></svg>